<?xml version="1.0" encoding="UTF-8" standalone="no"?>
<svg width="512" height="512" viewBox="0 0 512 512" version="1.1" xmlns="http://www.w3.org/2000/svg">
  <!-- Cortex File Manager Icon - Modern geometric design -->
  <defs>
    <!-- Gradient for depth and modern look -->
    <linearGradient id="primaryGradient" x1="0%" y1="0%" x2="100%" y2="100%">
      <stop offset="0%" style="stop-color:#667eea;stop-opacity:1" />
      <stop offset="100%" style="stop-color:#764ba2;stop-opacity:1" />
    </linearGradient>
    
    <linearGradient id="accentGradient" x1="0%" y1="0%" x2="100%" y2="100%">
      <stop offset="0%" style="stop-color:#f093fb;stop-opacity:1" />
      <stop offset="100%" style="stop-color:#f5576c;stop-opacity:1" />
    </linearGradient>
    
    <!-- Shadow filter -->
    <filter id="shadow" x="-50%" y="-50%" width="200%" height="200%">
      <feDropShadow dx="0" dy="4" stdDeviation="8" flood-opacity="0.2"/>
    </filter>
  </defs>
  
  <!-- Background circle -->
  <circle cx="256" cy="256" r="240" fill="url(#primaryGradient)" filter="url(#shadow)"/>
  
  <!-- Inner geometric pattern representing dual-pane layout -->
  <g transform="translate(256, 256)">
    <!-- Left pane -->
    <rect x="-160" y="-120" width="150" height="240" rx="8" fill="white" fill-opacity="0.95"/>
    
    <!-- Left pane content lines -->
    <rect x="-140" y="-100" width="110" height="8" rx="4" fill="#667eea" fill-opacity="0.6"/>
    <rect x="-140" y="-80" width="80" height="8" rx="4" fill="#667eea" fill-opacity="0.4"/>
    <rect x="-140" y="-60" width="95" height="8" rx="4" fill="#667eea" fill-opacity="0.4"/>
    <rect x="-140" y="-40" width="70" height="8" rx="4" fill="#667eea" fill-opacity="0.4"/>
    
    <!-- Selected item highlight -->
    <rect x="-145" y="-25" width="120" height="24" rx="4" fill="url(#accentGradient)" fill-opacity="0.3"/>
    <rect x="-140" y="-20" width="110" height="8" rx="4" fill="url(#accentGradient)"/>
    
    <rect x="-140" y="0" width="85" height="8" rx="4" fill="#667eea" fill-opacity="0.4"/>
    <rect x="-140" y="20" width="100" height="8" rx="4" fill="#667eea" fill-opacity="0.4"/>
    <rect x="-140" y="40" width="75" height="8" rx="4" fill="#667eea" fill-opacity="0.4"/>
    
    <!-- Right pane -->
    <rect x="10" y="-120" width="150" height="240" rx="8" fill="white" fill-opacity="0.95"/>
    
    <!-- Right pane folder icons -->
    <g transform="translate(35, -90)">
      <rect x="0" y="5" width="30" height="20" rx="2" fill="#667eea" fill-opacity="0.5"/>
      <path d="M 0 5 L 0 3 Q 0 0 3 0 L 10 0 L 13 3 L 27 3 Q 30 3 30 6 L 30 5 Z" fill="#667eea" fill-opacity="0.7"/>
    </g>
    
    <g transform="translate(85, -90)">
      <rect x="0" y="5" width="30" height="20" rx="2" fill="#667eea" fill-opacity="0.5"/>
      <path d="M 0 5 L 0 3 Q 0 0 3 0 L 10 0 L 13 3 L 27 3 Q 30 3 30 6 L 30 5 Z" fill="#667eea" fill-opacity="0.7"/>
    </g>
    
    <g transform="translate(35, -50)">
      <rect x="0" y="5" width="30" height="20" rx="2" fill="#667eea" fill-opacity="0.5"/>
      <path d="M 0 5 L 0 3 Q 0 0 3 0 L 10 0 L 13 3 L 27 3 Q 30 3 30 6 L 30 5 Z" fill="#667eea" fill-opacity="0.7"/>
    </g>
    
    <g transform="translate(85, -50)">
      <rect x="0" y="5" width="30" height="20" rx="2" fill="#667eea" fill-opacity="0.5"/>
      <path d="M 0 5 L 0 3 Q 0 0 3 0 L 10 0 L 13 3 L 27 3 Q 30 3 30 6 L 30 5 Z" fill="#667eea" fill-opacity="0.7"/>
    </g>
    
    <!-- Selected folder with accent -->
    <g transform="translate(35, -10)">
      <rect x="-5" y="0" width="40" height="30" rx="4" fill="url(#accentGradient)" fill-opacity="0.2"/>
      <rect x="0" y="5" width="30" height="20" rx="2" fill="url(#accentGradient)" fill-opacity="0.6"/>
      <path d="M 0 5 L 0 3 Q 0 0 3 0 L 10 0 L 13 3 L 27 3 Q 30 3 30 6 L 30 5 Z" fill="url(#accentGradient)" fill-opacity="0.8"/>
    </g>
    
    <!-- File icons -->
    <g transform="translate(85, -10)">
      <rect x="0" y="0" width="24" height="30" rx="2" fill="#667eea" fill-opacity="0.5"/>
      <path d="M 0 0 L 0 30 L 24 30 L 24 8 L 16 0 Z" fill="white" fill-opacity="0.9"/>
      <path d="M 16 0 L 16 8 L 24 8 Z" fill="#667eea" fill-opacity="0.3"/>
    </g>
    
    <g transform="translate(35, 30)">
      <rect x="0" y="0" width="24" height="30" rx="2" fill="#667eea" fill-opacity="0.5"/>
      <path d="M 0 0 L 0 30 L 24 30 L 24 8 L 16 0 Z" fill="white" fill-opacity="0.9"/>
      <path d="M 16 0 L 16 8 L 24 8 Z" fill="#667eea" fill-opacity="0.3"/>
    </g>
    
    <g transform="translate(85, 30)">
      <rect x="0" y="0" width="24" height="30" rx="2" fill="#667eea" fill-opacity="0.5"/>
      <path d="M 0 0 L 0 30 L 24 30 L 24 8 L 16 0 Z" fill="white" fill-opacity="0.9"/>
      <path d="M 16 0 L 16 8 L 24 8 Z" fill="#667eea" fill-opacity="0.3"/>
    </g>
    
    <!-- Bottom status bar -->
    <rect x="-160" y="130" width="320" height="30" rx="8" fill="white" fill-opacity="0.2"/>
    <rect x="-140" y="140" width="60" height="8" rx="4" fill="white" fill-opacity="0.6"/>
    <rect x="-70" y="140" width="40" height="8" rx="4" fill="white" fill-opacity="0.4"/>
    <rect x="80" y="140" width="60" height="8" rx="4" fill="white" fill-opacity="0.4"/>
  </g>
  
  <!-- Cortex "C" letter mark overlay -->
  <g transform="translate(256, 256)">
    <path d="M -60 -80 Q -100 -80 -120 -60 Q -140 -40 -140 0 Q -140 40 -120 60 Q -100 80 -60 80 L -30 80 L -30 50 L -60 50 Q -80 50 -95 35 Q -110 20 -110 0 Q -110 -20 -95 -35 Q -80 -50 -60 -50 L -30 -50 L -30 -80 Z" 
          fill="white" fill-opacity="0.2" stroke="white" stroke-width="2" stroke-opacity="0.3"/>
  </g>
</svg>