<?xml version="1.0" encoding="UTF-8" standalone="no"?>
<svg width="32" height="32" viewBox="0 0 32 32" version="1.1" xmlns="http://www.w3.org/2000/svg">
  <!-- Cortex Favicon - Optimized for small size -->
  <defs>
    <linearGradient id="favGrad" x1="0%" y1="0%" x2="100%" y2="100%">
      <stop offset="0%" style="stop-color:#667eea;stop-opacity:1" />
      <stop offset="100%" style="stop-color:#764ba2;stop-opacity:1" />
    </linearGradient>
  </defs>
  
  <!-- Rounded square background -->
  <rect x="0" y="0" width="32" height="32" rx="6" fill="url(#favGrad)"/>
  
  <!-- Stylized "C" or dual-pane representation -->
  <g>
    <!-- Left pane -->
    <rect x="5" y="8" width="10" height="16" rx="1" fill="white" fill-opacity="0.95"/>
    <rect x="7" y="10" width="6" height="2" fill="#667eea" fill-opacity="0.8"/>
    <rect x="7" y="13" width="4" height="2" fill="#667eea" fill-opacity="0.6"/>
    <rect x="7" y="16" width="6" height="2" fill="#a855f7" fill-opacity="0.9"/>
    <rect x="7" y="19" width="5" height="2" fill="#667eea" fill-opacity="0.6"/>
    
    <!-- Right pane -->
    <rect x="17" y="8" width="10" height="16" rx="1" fill="white" fill-opacity="0.95"/>
    <rect x="19" y="10" width="3" height="3" fill="#667eea" fill-opacity="0.7"/>
    <rect x="23" y="10" width="3" height="3" fill="#667eea" fill-opacity="0.7"/>
    <rect x="19" y="14" width="3" height="3" fill="#a855f7" fill-opacity="0.9"/>
    <rect x="23" y="14" width="3" height="3" fill="#667eea" fill-opacity="0.7"/>
    <rect x="19" y="18" width="3" height="3" fill="#667eea" fill-opacity="0.7"/>
    <rect x="23" y="18" width="3" height="3" fill="#667eea" fill-opacity="0.7"/>
  </g>
</svg>