<?xml version="1.0" encoding="UTF-8" standalone="no"?>
<svg width="512" height="512" viewBox="0 0 512 512" version="1.1" xmlns="http://www.w3.org/2000/svg">
  <!-- Cortex File Manager Icon - Simple version for small sizes -->
  <defs>
    <linearGradient id="grad1" x1="0%" y1="0%" x2="100%" y2="100%">
      <stop offset="0%" style="stop-color:#667eea;stop-opacity:1" />
      <stop offset="100%" style="stop-color:#764ba2;stop-opacity:1" />
    </linearGradient>
    
    <linearGradient id="grad2" x1="0%" y1="100%" x2="100%" y2="0%">
      <stop offset="0%" style="stop-color:#667eea;stop-opacity:1" />
      <stop offset="100%" style="stop-color:#a855f7;stop-opacity:1" />
    </linearGradient>
  </defs>
  
  <!-- Main shape - abstract representation of dual panes -->
  <g>
    <!-- Background -->
    <rect x="0" y="0" width="512" height="512" rx="96" fill="url(#grad1)"/>
    
    <!-- Left pane representation -->
    <rect x="80" y="120" width="160" height="272" rx="16" fill="white" fill-opacity="0.9"/>
    
    <!-- Left pane content -->
    <rect x="104" y="144" width="112" height="16" rx="8" fill="#667eea" fill-opacity="0.7"/>
    <rect x="104" y="176" width="80" height="16" rx="8" fill="#667eea" fill-opacity="0.5"/>
    <rect x="104" y="208" width="96" height="16" rx="8" fill="#667eea" fill-opacity="0.5"/>
    <rect x="104" y="240" width="112" height="24" rx="8" fill="url(#grad2)" fill-opacity="0.8"/>
    <rect x="104" y="280" width="88" height="16" rx="8" fill="#667eea" fill-opacity="0.5"/>
    <rect x="104" y="312" width="104" height="16" rx="8" fill="#667eea" fill-opacity="0.5"/>
    <rect x="104" y="344" width="72" height="16" rx="8" fill="#667eea" fill-opacity="0.5"/>
    
    <!-- Right pane representation -->
    <rect x="272" y="120" width="160" height="272" rx="16" fill="white" fill-opacity="0.9"/>
    
    <!-- Right pane folders/files grid -->
    <rect x="296" y="144" width="48" height="48" rx="8" fill="#667eea" fill-opacity="0.6"/>
    <rect x="360" y="144" width="48" height="48" rx="8" fill="#667eea" fill-opacity="0.6"/>
    <rect x="296" y="208" width="48" height="48" rx="8" fill="url(#grad2)" fill-opacity="0.8"/>
    <rect x="360" y="208" width="48" height="48" rx="8" fill="#667eea" fill-opacity="0.6"/>
    <rect x="296" y="272" width="48" height="48" rx="8" fill="#667eea" fill-opacity="0.6"/>
    <rect x="360" y="272" width="48" height="48" rx="8" fill="#667eea" fill-opacity="0.6"/>
    <rect x="296" y="336" width="48" height="48" rx="8" fill="#667eea" fill-opacity="0.6"/>
    
    <!-- Center divider -->
    <rect x="252" y="120" width="8" height="272" rx="4" fill="white" fill-opacity="0.3"/>
  </g>
</svg>