<?xml version="1.0" encoding="UTF-8" standalone="no"?>
<svg width="512" height="512" viewBox="0 0 512 512" version="1.1" xmlns="http://www.w3.org/2000/svg">
  <!-- Cortex Alternative Icon - Minimalist geometric design -->
  <defs>
    <!-- Modern gradient palette -->
    <linearGradient id="altGrad1" x1="0%" y1="0%" x2="100%" y2="100%">
      <stop offset="0%" style="stop-color:#6366f1;stop-opacity:1" />
      <stop offset="50%" style="stop-color:#8b5cf6;stop-opacity:1" />
      <stop offset="100%" style="stop-color:#ec4899;stop-opacity:1" />
    </linearGradient>
    
    <linearGradient id="altGrad2" x1="100%" y1="0%" x2="0%" y2="100%">
      <stop offset="0%" style="stop-color:#10b981;stop-opacity:1" />
      <stop offset="100%" style="stop-color:#3b82f6;stop-opacity:1" />
    </linearGradient>
    
    <!-- Subtle shadow -->
    <filter id="softShadow">
      <feGaussianBlur in="SourceAlpha" stdDeviation="8"/>
      <feOffset dx="0" dy="4" result="offsetblur"/>
      <feFlood flood-color="#000000" flood-opacity="0.15"/>
      <feComposite in2="offsetblur" operator="in"/>
      <feMerge>
        <feMergeNode/>
        <feMergeNode in="SourceGraphic"/>
      </feMerge>
    </filter>
  </defs>
  
  <!-- Background shape - rounded square -->
  <rect x="32" y="32" width="448" height="448" rx="64" fill="url(#altGrad1)" filter="url(#softShadow)"/>
  
  <!-- Abstract file manager representation -->
  <g transform="translate(256, 256)">
    <!-- Central structure representing dual-pane layout -->
    
    <!-- Left panel -->
    <g transform="translate(-96, 0)">
      <rect x="-64" y="-128" width="128" height="256" rx="8" fill="white" fill-opacity="0.15"/>
      <rect x="-64" y="-128" width="128" height="256" rx="8" fill="white" fill-opacity="0.1" stroke="white" stroke-width="2" stroke-opacity="0.3"/>
      
      <!-- Content representation -->
      <rect x="-48" y="-108" width="96" height="8" rx="4" fill="white" fill-opacity="0.8"/>
      <rect x="-48" y="-88" width="64" height="8" rx="4" fill="white" fill-opacity="0.5"/>
      <rect x="-48" y="-68" width="80" height="8" rx="4" fill="white" fill-opacity="0.5"/>
      <rect x="-48" y="-48" width="96" height="12" rx="4" fill="white" fill-opacity="0.95"/>
      <rect x="-48" y="-24" width="72" height="8" rx="4" fill="white" fill-opacity="0.5"/>
      <rect x="-48" y="-4" width="88" height="8" rx="4" fill="white" fill-opacity="0.5"/>
      <rect x="-48" y="16" width="60" height="8" rx="4" fill="white" fill-opacity="0.5"/>
    </g>
    
    <!-- Right panel -->
    <g transform="translate(96, 0)">
      <rect x="-64" y="-128" width="128" height="256" rx="8" fill="white" fill-opacity="0.15"/>
      <rect x="-64" y="-128" width="128" height="256" rx="8" fill="white" fill-opacity="0.1" stroke="white" stroke-width="2" stroke-opacity="0.3"/>
      
      <!-- Grid representation -->
      <rect x="-48" y="-108" width="40" height="40" rx="4" fill="white" fill-opacity="0.7"/>
      <rect x="0" y="-108" width="40" height="40" rx="4" fill="white" fill-opacity="0.7"/>
      <rect x="-48" y="-56" width="40" height="40" rx="4" fill="white" fill-opacity="0.95"/>
      <rect x="0" y="-56" width="40" height="40" rx="4" fill="white" fill-opacity="0.7"/>
      <rect x="-48" y="-4" width="40" height="40" rx="4" fill="white" fill-opacity="0.7"/>
      <rect x="0" y="-4" width="40" height="40" rx="4" fill="white" fill-opacity="0.7"/>
      <rect x="-48" y="48" width="40" height="40" rx="4" fill="white" fill-opacity="0.7"/>
    </g>
    
    <!-- Center connector/divider -->
    <rect x="-8" y="-128" width="16" height="256" rx="8" fill="url(#altGrad2)" fill-opacity="0.3"/>
    <rect x="-4" y="-100" width="8" height="200" rx="4" fill="white" fill-opacity="0.2"/>
  </g>
  
  <!-- Subtle overlay pattern -->
  <g opacity="0.1">
    <circle cx="100" cy="100" r="60" fill="white" fill-opacity="0.5"/>
    <circle cx="412" cy="412" r="80" fill="white" fill-opacity="0.3"/>
    <circle cx="400" cy="150" r="40" fill="white" fill-opacity="0.4"/>
  </g>
</svg>